/* XPM */
static char *result[] = {
/* columns rows colors chars-per-pixel */
"32 32 13 1 ",
"  c black",
". c #001066",
"X c #A50000",
"o c red",
"O c #BF6E39",
"+ c #FF9400",
"@ c #FFD800",
"# c #FFB27F",
"$ c #003399",
"% c #0072E5",
"& c #00A9FF",
"* c white",
"= c None",
/* pixels */
"================================",
"============%%%%%===============",
"===========%&&&&&%==============",
"===========%&&&&&&%=============",
"==========%&&&&&&&%%============",
"=========$%&&&&&&&%%$===========",
"=========$%%&&&&&%%%$===========",
"========$%%%%%%%%%%%%$==========",
"========$%%%%%%%%$$$%$==========",
"========$%%%%%%%$***$$==========",
"========$$$%%%%$+*  $$==========",
"========+@+$%%%$+*  #===========",
"========++@$%%%$+####===========",
"========+@@@$$$$@#OOO===========",
"========+@@++##@@@O#============",
"=========++=OOOO@O#.============",
"===========.$$$$$$..============",
"===========.$$...$.$============",
"===========$%%$oo..#============",
"===========####oooX#============",
"===========####oooX=============",
"===========###ooXXX.============",
"===========.XXXX.$...===========",
"===========.$$.==....===========",
"===========.$$$.=...============",
"===========.....================",
"================================",
"================================",
"================================",
"================================",
"================================",
"================================"
};
