/* XPM */
static char *_7ac55e597df434fb0b7e6707676b03ceiDL6WJvgCR7nrOQ[] = {
/* columns rows colors chars-per-pixel */
"32 32 215 2 ",
"   c #192902",
".  c #1D3900",
"X  c #1B3305",
"o  c #162214",
"O  c #1F3912",
"+  c #222B0C",
"@  c #223202",
"#  c #213F00",
"$  c #2A3C00",
"%  c #2D3C0E",
"&  c #283308",
"*  c #212B13",
"=  c #2B3C13",
"-  c #25331E",
";  c #263A19",
":  c #323C17",
">  c #2A3622",
",  c #274900",
"<  c #2B4A00",
"1  c #314B03",
"2  c #38480C",
"3  c #395406",
"4  c #39530A",
"5  c #2E4113",
"6  c #2F411A",
"7  c #2E4D11",
"8  c #344314",
"9  c #3A4514",
"0  c #33441B",
"q  c #3A4C1F",
"w  c #354516",
"e  c #335314",
"r  c #354424",
"t  c #394B24",
"y  c #354129",
"u  c #3A462D",
"i  c #3F4E2A",
"p  c #3A5427",
"a  c #3C463B",
"s  c #455F18",
"d  c #4A680A",
"f  c #577717",
"g  c #424D2A",
"h  c #41532C",
"j  c #415427",
"k  c #4F5C30",
"l  c #4E6F20",
"z  c #4E622C",
"x  c #4E6D2A",
"c  c #5C7D23",
"v  c #5E7B2B",
"b  c #57752A",
"n  c #586A3C",
"m  c #5B783A",
"M  c #51692F",
"N  c #627D26",
"B  c #637B38",
"V  c #576647",
"C  c #5A7844",
"Z  c #667849",
"A  c #657857",
"S  c #677462",
"D  c #6F922A",
"F  c #6A8738",
"G  c #708E34",
"H  c #748855",
"J  c #7E8967",
"K  c #8EAF3A",
"L  c #98B53E",
"P  c #8EB04F",
"I  c #9BB443",
"U  c #9CB94D",
"Y  c #99B24C",
"T  c #9EB453",
"R  c #9CB45C",
"E  c #9EBC5C",
"W  c #A3BB4D",
"Q  c #A3BB53",
"!  c #A9BF57",
"~  c #A2B45B",
"^  c #A0B757",
"/  c #8EAF6A",
"(  c #98AC64",
")  c #9FB56E",
"_  c #98B369",
"`  c #9AAA71",
"'  c #94A975",
"]  c #9BB274",
"[  c #9EB875",
"{  c #A5BD62",
"}  c #A6BA6A",
"|  c #A0B66D",
" . c #A6BA72",
".. c #A9BB73",
"X. c #A4B67C",
"o. c #A1BA7C",
"O. c #AABE7C",
"+. c #A5B772",
"@. c #9FC055",
"#. c #A6C553",
"$. c #A4C25A",
"%. c #AAC35B",
"&. c #B4CB5B",
"*. c #A5C663",
"=. c #ABC362",
"-. c #AFCF60",
";. c #A9C46E",
":. c #B3C968",
">. c #B4D263",
",. c #B8D169",
"<. c #ADC976",
"1. c #B2C375",
"2. c #BDCF75",
"3. c #B8D773",
"4. c #C0D866",
"5. c #C8DD77",
"6. c #CCE47C",
"7. c #CBE97C",
"8. c #D4EC7B",
"9. c #D5F07F",
"0. c #9EAE8A",
"q. c #9EB281",
"w. c #A0AD82",
"e. c #A1B481",
"r. c #A5B48C",
"t. c #A7BA87",
"y. c #A7B790",
"u. c #AABB99",
"i. c #AEC881",
"p. c #B9CA87",
"a. c #B1CD93",
"s. c #BBD49B",
"d. c #BBD685",
"f. c #B5C4A3",
"g. c #BBD1A2",
"h. c #C9DA86",
"j. c #C8D59B",
"k. c #D3DE99",
"l. c #CEEA84",
"z. c #CCE788",
"x. c #D4EB83",
"c. c #D2EC8C",
"v. c #D4E688",
"b. c #D5F282",
"n. c #DCF68A",
"m. c #C9E394",
"M. c #CEE99A",
"N. c #D4EA93",
"B. c #D4EC9E",
"V. c #D1E69B",
"C. c #DAF598",
"Z. c #E4FB9D",
"A. c #EBFF93",
"S. c #F0FF9E",
"D. c #C7D8A1",
"F. c #CBE3A5",
"G. c #CEE4AD",
"H. c #CFE9A6",
"J. c #D3E9AF",
"K. c #D3E9A6",
"L. c #DCF7AE",
"P. c #CFE0B4",
"I. c #D5EAB2",
"U. c #D8EAB5",
"Y. c #DFF1BD",
"T. c #E4F6A6",
"R. c #E5F6A8",
"E. c #EAFDB4",
"W. c #DBE4D9",
"Q. c #EAF9C0",
"!. c #E0EDD3",
"~. c #E9F4D5",
"^. c #ECF5DB",
"/. c #EEF9DB",
"(. c #E6F2DC",
"). c #F8FFD6",
"_. c #F3FDDC",
"`. c #F9FFDC",
"'. c #F5FFD2",
"]. c #E9E4E7",
"[. c #E5ECE4",
"{. c #EAE7EF",
"}. c #ECECEA",
"|. c #EAECE7",
" X c #ECF4E4",
".X c #ECFDE3",
"XX c #EDF4EB",
"oX c #EDF9EB",
"OX c #F2F5E2",
"+X c #F3FDE4",
"@X c #FAFFE4",
"#X c #F3F5ED",
"$X c #FAF7EB",
"%X c #F5FDEC",
"&X c #FCFEEC",
"*X c #EFEEF3",
"=X c #E6E8F2",
"-X c #F1EFF2",
";X c #EEF1F3",
":X c #F3F4F4",
">X c #F9F6F5",
",X c #F6FCF3",
"<X c #FCFEF4",
"1X c #F4F6FB",
"2X c #FAF6FA",
"3X c #F6FBFC",
"4X c #FBFFFF",
"5X c #FAFDFE",
"6X c #FFFFFD",
"7X c None",
"8X c #FCFFFF",
"9X c white",
"0X c #FEFFFF",
"qX c #FDFDFE",
"wX c #FDFDFD",
/* pixels */
"7X7X7X7X7X7X7X7X7X7X7X7X7X7X7X7X7X7X7X7X7X7X7X7X7X7X7X7X7X7X7X7X",
"7X7X7X7X7X7X7X7X7X7X7X7X7X7X7X7X7X7X7X7X7X7X7X7X7X7X7X7X7X7X7X7X",
"7X7X7X7X7X7X7X7X7X7X7X7X7X7X7X7X7X7X7X7X7X7X7X7X7X7X7X7X7X7X7X7X",
"7X7X7X7X7X7X7X7X7X7X7X7X7X7X7X7X7X7X7X7X7X7X7X7X7X7X7X7X7X7X7X7X",
"7X7X7X7X7X7X7X7X7X7X7X7X7X7X7X7X7X7X7X7X7X7X7X7X7X7X7X7X7X7X7X7X",
"7X7X7X7X7X7X7X7X7X7X7X7X7X7X7X+X<X XoX,X,X,X,XoX,XoXXX7X7X7X7X7X",
"7X7X7X7X7X7X7X,X%Xr = t   8 % 8 q w = j X t t 0 +X+X&X!.&X(. X%X",
"7X7X7X7X7X7Xu r 6 y.e.] p.) | <.)  ._ i.B ] o.t.p w 0 i /.&X&X+X",
"7X7X7X7X7Xy u.6 G.G.H.M.C.c.c.c.z.z.Z.d ;.v 1 1 [ I.q.n i _.^.&X",
"7X7X7X7X7Xy 0.w J.L.m.z.C.l.b.b.7.n.7.D P 1 < ) F.s.g.y.r &X&X X",
"7X7X7X7X7Xu V q t.[ d.E $.>.K #.#.@.P f 3., . m a.' u.V > [.6X>X",
"7X7X7X7X7Xy A 0 n o._ ;.E U -.>.$.*.*.c <.l e 7 M A A S a 6X1X7X",
"7X7X7X7X7X7X- r 0 H m B N G N d f G c F b / m C p ; - o <X;X:X7X",
"7X7X7X7X7X<X%X%X%X  5 7 . s 3 1 3 X 3 # e e e X O .X,X<X[.7X7X7X",
"7X7X7X7X7X2XXX<XoX.X.Xh Z z z B F v v F x m C C p +X.X,X<X#X7X7X",
"7X7X7X7X7X7X7X7X7X,X%X+ P.Y.U.J.m.B.N.m.L.H.H.' 6 +X%X7XXX7X7X7X",
"7X7X7X7X7X7X7X7X<X%X@X8 j.p.1.~ :.%.%.Q %.T T.i.: _.<X6X>X7X6X<X",
"7X7X7X7X7X7X7X7X,X+X`.& k.R.v.v.x.8.8.8.n.x.h.p.& @X,X7X7X>X<X6X",
"7X7X7X7X7X7X7X7X<X&X).2 R.~ 2.Y %.Q >.! T 2.R.` 0 &X<X#X7X7X6X>X",
"7X7X7X7X7X7X7X,X+X`.Q.$ N.Z.5.S.5.6.n.v.h.E.j.r.: OX<X6X<X>X7X7X",
"7X7X7X7X7X7X<X%X@X'.s } :.^ ! I ,.Q :.} O.` w.g &X<X%X<X6X7X7X7X",
"7X7X7X7X7X7X X/.@ $ 1.{ =.,.&.W U $.{ ( D.w r +X%X X7X7X6X7X7X7X",
"1X7X:X3X[.<X&X5 J.E.N.,.7.b.4.A.n.x.C.1 @ +X(.<X<X7X7X7X7X7X7X7X",
"7X7X7X7X7X7Xr I.O.R { 3.>.I &.I L b.R $ `.+X%X,X7X7X7X7X7X7X7X7X",
"7X7X7X7X7X7X= I.B.N.l.l.7.8.8.9.8.b.~ 4 5 ; <XoX7X7X7X7X7X7X7X7X",
"7X7X7X7X7X7X@ F...;.=.%.%.%.%.%.#.7.R 4 e.f.- <X<X7X7X7X7X7X7X7X",
"7X7X7X7X7X7Xh U.F.V.N.N.N.N.N.c.l.c.R.M Z r.u %X,X7X7X6X7X7X7X7X",
"7X7X7X7X7X7X_.% X.X.+.+. . .+. .} ..+.` t.J * <X<X7X6X7X7X7X7X7X",
"7X7X7X7X7X7X7X7X0 w 8 2 2 9 9 9 9 @ 8 k g + &X%X6X7X7X7X7X7X7X7X",
"7X7X7X7X7X7X7X7X&X+X_._._.`.@X@X&X&X~.~././.&X7X7X7X7X7X7X7X7X7X",
"7X7X7X7X7X7X7X7X7X7X7X7X7X7X7X7X7X7X7X7X7X7X7X7X7X7X7X7X7X7X7X7X",
"7X7X7X7X7X7X7X7X7X7X7X7X7X7X7X7X7X7X7X7X7X7X7X7X7X7X7X7X7X7X7X7X"
};
