/* XPM */
static char *dcc691a311be46c2ecba3a8d802f6ffbzkfdEydoTEvLRXjs[] = {
/* columns rows colors chars-per-pixel */
"32 32 235 2 ",
"   c #193600",
".  c #1B3B00",
"X  c #153B07",
"o  c #143C1A",
"O  c #1A3B1A",
"+  c #143718",
"@  c #0F3607",
"#  c #223C03",
"$  c #253F10",
"%  c #1A3E24",
"&  c #203F30",
"*  c #203E24",
"=  c #1D4300",
"-  c #1C4903",
";  c #13420B",
":  c #194109",
">  c #1D4415",
",  c #1D4B14",
"<  c #1D431C",
"1  c #1D4A1A",
"2  c #164516",
"3  c #1F511E",
"4  c #0D4008",
"5  c #244401",
"6  c #2A4503",
"7  c #244902",
"8  c #2C4C02",
"9  c #22430B",
"0  c #2B4A0B",
"q  c #26490A",
"w  c #304D0B",
"e  c #344C07",
"r  c #285208",
"t  c #33520D",
"y  c #345604",
"u  c #234614",
"i  c #234C12",
"p  c #2A4B14",
"a  c #244C1A",
"s  c #2A4A1B",
"d  c #274618",
"f  c #304E12",
"g  c #324517",
"h  c #2C5314",
"j  c #2B5B11",
"k  c #25521D",
"l  c #2A501B",
"z  c #335413",
"x  c #34561C",
"c  c #1D4323",
"v  c #1D452B",
"b  c #1A4725",
"n  c #1F4B2D",
"m  c #234425",
"M  c #234B23",
"N  c #23452A",
"B  c #23492C",
"V  c #294B2B",
"C  c #294C25",
"Z  c #295322",
"A  c #2C532E",
"S  c #245424",
"D  c #395726",
"F  c #294932",
"G  c #244936",
"H  c #2C5232",
"J  c #345738",
"K  c #5C7A0E",
"L  c #5A7809",
"P  c #4E6C1C",
"I  c #54741A",
"U  c #5D7A1A",
"Y  c #627A09",
"T  c #637A13",
"R  c #647E1B",
"E  c #6A7B15",
"W  c #4A7423",
"Q  c #5B7522",
"!  c #5B7C26",
"~  c #5B7A2D",
"^  c #567929",
"/  c #456D34",
"(  c #506D3F",
")  c #4C733C",
"_  c #477539",
"`  c #5A7B32",
"'  c #517B3B",
"]  c #53763D",
"[  c #627B2A",
"{  c #667C27",
"}  c #607D33",
"|  c #4B6D46",
" . c #506F45",
".. c #4C7342",
"X. c #4E784A",
"o. c #537544",
"O. c #53764C",
"+. c #547B4C",
"@. c #5B7B4C",
"#. c #577946",
"$. c #5D7C51",
"%. c #5B765A",
"&. c #587656",
"*. c #4D7457",
"=. c #617E57",
"-. c #607E4A",
";. c #5C8019",
":. c #5E8008",
">. c #658414",
",. c #6C8215",
"<. c #64811C",
"1. c #6A831B",
"2. c #688B18",
"3. c #638107",
"4. c #588031",
"5. c #5F852E",
"6. c #658326",
"7. c #668937",
"8. c #718A31",
"9. c #538044",
"0. c #55844D",
"q. c #5D8B4D",
"w. c #5D8152",
"e. c #588458",
"r. c #678643",
"t. c #628554",
"y. c #688A57",
"u. c #689351",
"i. c #5C8364",
"p. c #658761",
"a. c #9BB93B",
"s. c #8CA932",
"d. c #A4BC3D",
"f. c #A3BB39",
"g. c #A5C331",
"h. c #AAC33D",
"j. c #ADCB3A",
"k. c #A8C538",
"l. c #B2D33E",
"z. c #B6CF3D",
"x. c #9DBD44",
"c. c #9CBB4B",
"v. c #9CB64A",
"b. c #9AAF50",
"n. c #9EBB54",
"m. c #9AB65B",
"M. c #9DBB5B",
"N. c #97B659",
"B. c #A3BD4B",
"V. c #A7BD45",
"C. c #A3BC53",
"Z. c #A8BF53",
"A. c #A5BE59",
"S. c #A7BB5E",
"D. c #9DBC66",
"F. c #97BA64",
"G. c #88AC7A",
"H. c #9CBD73",
"J. c #A6BC66",
"K. c #A2BA78",
"L. c #9DC14A",
"P. c #9EC254",
"I. c #A3C443",
"U. c #ABC344",
"Y. c #ACCA43",
"T. c #A4C34B",
"R. c #ABC34C",
"E. c #A6C94B",
"W. c #ACCA4B",
"Q. c #B3CC45",
"!. c #B1C64A",
"~. c #A4C253",
"^. c #ABC353",
"/. c #AECB53",
"(. c #A4C25C",
"). c #ACC45B",
"_. c #ACCA5B",
"`. c #B1C551",
"'. c #B3CC51",
"]. c #B1C35C",
"[. c #B3CC5C",
"{. c #B8CE50",
"}. c #B6D55C",
"|. c #9BC36B",
" X c #96C076",
".X c #A4C362",
"XX c #ADC564",
"oX c #A5C46C",
"OX c #ACC569",
"+X c #ADCB6B",
"@X c #A9CB69",
"#X c #B4CC62",
"$X c #B4CC6C",
"%X c #B9CB67",
"&X c #B7D366",
"*X c #AACC75",
"=X c #A7C675",
"-X c #ADD177",
";X c #B1D177",
":X c #AED16B",
">X c #C2DE6E",
",X c #CBE769",
"<X c #CDEE76",
"1X c #D9F77C",
"2X c #D3ED70",
"3X c #8DB984",
"4X c #95BA8A",
"5X c #9FBE92",
"6X c #A1BE8E",
"7X c #96C18D",
"8X c #9FC386",
"9X c #9FC697",
"0X c #A7C789",
"qX c #A6C496",
"wX c #B1D190",
"eX c #BEDCA8",
"rX c #BBE1A2",
"tX c #BAE7B4",
"yX c #CCEC88",
"uX c #CCF287",
"iX c #D9F682",
"pX c #C8EB91",
"aX c #CBF297",
"sX c #D7F396",
"dX c #D1EA85",
"fX c #E9FF8A",
"gX c #C4E7AE",
"hX c #C7E6BB",
"jX c #C3E9B6",
"kX c #CCF1B5",
"lX c #CCF0BA",
"zX c #D4FDA1",
"xX c #E6FFA4",
"cX c #D0EDC1",
"vX c #C8EAC5",
/* pixels */
"n v B N N N m M 1 k 3 ; k > > M O A 2 S 2 2 , 1 Z c F F % B N v ",
"% B c N % V < > jX3X_ 0.) +.@.hX9XX.....y.0.tX7XX < * N c B B v ",
"B B c + J C O.w.7Xi q.9.' ' y.G.d t.9.' / 9.3Xi t.p.O O J H + v ",
"o H B V  .| y.) i - j - 7 7 0 x f   h r r h - i / t.$.=.O + J c ",
"n c c vX5X@.  z 7 7.W W u.5 } P ~ ` y ^ W 4.7.7 z   -.hXqX< c B ",
"b A A G.l q 8 ` 7 |.zXaXF.[ =XsXpX;XP =XaXpX|.4.` t 5 0XX A B M ",
"2 < O.t.q 5 7.D.! M.yX;..X6.n.dX1.(.6..XuX6.N.! D.~ 8 w $.| A O ",
"S 1 O.o.8 ! oXoX6.P.~.~..XR ).^.^.~.R .Xc.L.:XI *XD.[ 6 @.O.M M ",
"2 e.w.9 8 sXsX.XR n.c.~.(.1.Z.T.U.T.1.(.T.x.n.R m.xXyX8 9 O.e.M ",
"S tX9Xf I >X1.XXR )./.T.C.R R.!.W.R.T C.E.W._.1.).dXL U D hX4X1 ",
"; 7Xd 0 :X}.^.C.K ~./.T.A.T R.h.h.R.T ~.I.W.~.K _.C.&X@X# 4XZ 1 ",
"a _ w.8 c.a.B._.1.~.E.T.XXR `.U.U.W.1.XXL.E.T.1.Z.^.a.).f o.+.1 ",
"k 0.#.5 _.I.>Xc.1.B.I.T..XU R.W.Y.T.U .XI.I.B.1.).[.W.C.5 y.O.Z ",
", #.o.0 T.h.V.Z.K ~.W.}.OX{ c.I.I.x.U .X}.E.~.K v.R.f.^.z $...1 ",
": #.@.8 x.Q.V.#XT _.x.~.m.8.^.E.Y.^.8.N.E.a._.T ).^.U.T.5  .w.a ",
"l jX6X6 R.h.R.Z.R m.>.U ~ } .X~.T.(.~ ! ;.>.n.R ).V.h.T.w cX4X> ",
"d qX$ 6 /.Q.V.[.{ K.5 H.0X= ` 7.5.^ = 0XH.5 K.{ ].U.d.^.e qXd > ",
"C O.t.e ^.h.U.Z.Q 0Xz 0 gXx q . . 7 x gX0 z 0X[ ^.d.Q.#X# ( p.C ",
"< ..#.6 T.h.U.^.[ K.  p lXG.y.h h u.G.lX0   K.[ ^.{.f.v.t @.| < ",
"> y.o.6 T.Y.Y.R.{ =Xr.z ] jXkXrXrXkXgX] z r.=X{ B.h.Q.[.. t.+.a ",
"k / ] 8 W.j.k.U.R D.^ 7 7 7 z 7 7 z 7 7 7 Q J.R W.k.g.E.8 ) 0., ",
", kX0Xy s.k.l.a.K +X-XI y 8 5 8 8 7 8 y I ;X$XY f.j.l.a.8 kX9X; ",
"a 3X9 5 /.l.g.Y.>.C.n.+Xm.Q 7.I I 6.Q m.+Xn.A.,.Q.z.g.E.t 3X> 1 ",
"1 O.@.0 ~.h.j.U.>.A.#Xn.+X6.S.OXOXm.6.OXn.#XA.,.U.h.h.^.6 $.O.M ",
"m &.%.# $XV.U.R.T ).A.&Xn.{ S.J.$Xb.8.A.C.A.S.T R.U.R.J.g &.&.B ",
"C &.&.D m.`.'.`.T ).).s.).1.].].C.).T #X).B.%XE `.V.`.OXg %.p.m ",
"s #.@.6 A.d.d.U.,.v./.}.B.Y R.`.R.U.Y R.T.T.v.,.!.U.d.XX6 =...: ",
". kXwX. ).fX,X/.1.c.1X<X/.3.R.,X2X'.L E.1X<X[.Y a.1X1XC.6 eXrXq ",
"r H.9 t v.<X:.~.6.N.uXL P.>.c.iX2.L.2.P.<XK +X<.^.iXL A.w 8X= - ",
"j ' ) 9 ;X.XM.oX. wX*XF.-X7 =XD.N.@X7 |.@X*XH.` oXM.(.*Xh o.' j ",
"; X.i.V   = p p V O > l u X d s s u Z : a @ V V s # t p + *.e.4 ",
"S b v F d p s m G G B c B N B c N c c B B B G & m s 9 s G G b S "
};
