/* XPM */
static char *d51ebba5d36a4dc3dbec1a766152e732Nem23ABE8mRs6QTZ[] = {
/* columns rows colors chars-per-pixel */
"32 32 228 2 ",
"   c #0F3303",
".  c #1C3E03",
"X  c #19390A",
"o  c #1D3C18",
"O  c #233D01",
"+  c #253D0B",
"@  c #273A03",
"#  c #253E17",
"$  c #1D382F",
"%  c #1F3D31",
"&  c #273F26",
"*  c #243F38",
"=  c #1B4308",
"-  c #1D4214",
";  c #1D461B",
":  c #174016",
">  c #234200",
",  c #2C4402",
"<  c #244B00",
"1  c #2D4A00",
"2  c #24440D",
"3  c #2B440B",
"4  c #2B4B0B",
"5  c #324600",
"6  c #324C01",
"7  c #344909",
"8  c #2C5201",
"9  c #2C510C",
"0  c #325304",
"q  c #3A5302",
"w  c #37570C",
"e  c #234413",
"r  c #2B4414",
"t  c #2B431B",
"y  c #2C4C1B",
"u  c #264A18",
"i  c #324917",
"p  c #355519",
"a  c #3A5616",
"s  c #2D4423",
"d  c #2C4923",
"f  c #294B29",
"g  c #295321",
"h  c #365729",
"j  c #315037",
"k  c #42530C",
"l  c #55770C",
"z  c #4E771B",
"x  c #5B741A",
"c  c #557E1C",
"v  c #5B7C1C",
"b  c #567916",
"n  c #62761F",
"m  c #476D20",
"M  c #4B762C",
"N  c #4E792C",
"B  c #4D7627",
"V  c #547422",
"C  c #557D26",
"Z  c #5B7D23",
"A  c #567D2D",
"S  c #587F2D",
"D  c #567729",
"F  c #516C34",
"G  c #4D7733",
"H  c #557D34",
"J  c #5C7C35",
"K  c #52773C",
"L  c #5A763C",
"P  c #547B3A",
"I  c #5C7B3C",
"U  c #527632",
"Y  c #496437",
"T  c #627C25",
"R  c #273F4B",
"E  c #547743",
"W  c #557D43",
"Q  c #5B7B44",
"!  c #557A4B",
"~  c #5D7949",
"^  c #5C7745",
"/  c #647F56",
"(  c #647C48",
")  c #5E821E",
"_  c #61851E",
"`  c #5C832C",
"'  c #578225",
"]  c #568133",
"[  c #5B8334",
"{  c #55803A",
"}  c #5C823B",
"|  c #668623",
" . c #6A8B2D",
".. c #65872A",
"X. c #668939",
"o. c #6B9030",
"O. c #708A27",
"+. c #598144",
"@. c #5D814A",
"#. c #578141",
"$. c #5C8054",
"%. c #638D44",
"&. c #61864E",
"*. c #688748",
"=. c #679044",
"-. c #658850",
";. c #91B64F",
":. c #94AD52",
">. c #95B459",
",. c #9BB65D",
"<. c #96BA59",
"1. c #A2BB58",
"2. c #84AE62",
"3. c #90AF69",
"4. c #9CB565",
"5. c #9CBD66",
"6. c #9ABB6D",
"7. c #94B866",
"8. c #9BB675",
"9. c #9DBD73",
"0. c #99B17B",
"q. c #8CB267",
"w. c #A4BC6C",
"e. c #A1B966",
"r. c #A5BD74",
"t. c #AABE75",
"y. c #A4BC7B",
"u. c #ABBD7B",
"i. c #A0B572",
"p. c #9AC14E",
"a. c #9EC458",
"s. c #A2C45E",
"d. c #A3CB5C",
"f. c #A0C657",
"g. c #9AC365",
"h. c #9DC26B",
"j. c #9FC865",
"k. c #9CC674",
"l. c #A2C565",
"z. c #A2C56C",
"x. c #ABC56C",
"c. c #A5CA6B",
"v. c #ABCD6C",
"b. c #A8C863",
"n. c #ADD167",
"m. c #A3C373",
"M. c #ACC373",
"N. c #A5C37B",
"B. c #A9C47B",
"V. c #ADCC7C",
"C. c #A7CB72",
"Z. c #B3CA76",
"A. c #ACD078",
"S. c #B2D571",
"D. c #B0CA67",
"F. c #BDE779",
"G. c #C7EB7A",
"H. c #CBF17C",
"J. c #CDFA7B",
"K. c #9DBA80",
"L. c #89A982",
"P. c #9BC08D",
"I. c #A4C184",
"U. c #AACB81",
"Y. c #ACC788",
"T. c #B1C580",
"R. c #B8D489",
"E. c #A7C593",
"W. c #AFC893",
"Q. c #BDDCB0",
"!. c #C6DC8D",
"~. c #C5D78B",
"^. c #C9DD96",
"/. c #D1DF94",
"(. c #CCE485",
"). c #CDE58D",
"_. c #C5EB8B",
"`. c #CDE98C",
"'. c #C7E984",
"]. c #D1E585",
"[. c #D1E58C",
"{. c #D2EB8D",
"}. c #D7EB8B",
"|. c #C9F286",
" X c #C9F28C",
".X c #C7F08A",
"XX c #D7F68A",
"oX c #CCE494",
"OX c #CEE992",
"+X c #CCE59D",
"@X c #C7E698",
"#X c #D3E595",
"$X c #D8E595",
"%X c #D3EA94",
"&X c #DAEB94",
"*X c #D3E59B",
"=X c #D5EB9B",
"-X c #DAED9B",
";X c #DBE79D",
":X c #CBF294",
">X c #CAF198",
",X c #D5F094",
"<X c #DBF29C",
"1X c #D7F59B",
"2X c #E3EE9F",
"3X c #E3FA9C",
"4X c #C4DBA4",
"5X c #CBDDA9",
"6X c #C6E0A2",
"7X c #CCE2A4",
"8X c #CCEBA3",
"9X c #CFE6AE",
"0X c #CAE9A9",
"qX c #D3E6A1",
"wX c #D5EBA4",
"eX c #DBEDA2",
"rX c #D4EDAC",
"tX c #DBEBA8",
"yX c #DAF2A3",
"uX c #DBF1AA",
"iX c #CEE6B4",
"pX c #CEEAB1",
"aX c #C9E5B5",
"sX c #D5EAB4",
"dX c #E3FABE",
"fX c #E6F4A9",
"gX c #DBF3C3",
"hX c #E4FAC9",
/* pixels */
"o d 2 4 4 4 r + t i + p O p r 2 3 , 7 i e = 7 5 + i r . w w   f ",
"d Q.0X0X8X^.4XhXsX+ sX6XrXpX0.i 7XrX5X4XE.h @XqXuX5XE.4 R.uXP.; ",
"t aXY.6.m.V.Y.0.W.3 dX7X+XrXI.3 wXuXqX7XW.  wX*XtX7XK.4 M.r.&.- ",
"r pX9.0 1 > 7 , @ , ^.uX+X8Xy., +XoXqXqXI.9 =X)./.wX8.w w.w.K g ",
"r pX6.1 (.yXoXuXu.a wX=X=XoXr.1 =X%XfXwX3.w %X&XeXqXN.> {.x.%.= ",
"3 6XB.1 %X-X!.wXT.O !.%X-X%Xr.6 =X[.$X*X9.> %X].-X~.B.1 3X:.U u ",
"i 6XM.q `.).-X=Xi.k #X<X).-Xr.q %X[.#X=XR.< ,X].&X=Xm.6 [.Z.} 2 ",
"+ dX4., 1X{.oX=XB.@ <X%X(.<Xr., #X#X2X#X6.8 (.&X&X#Xr.1 ].x.I e ",
"r 9Xr.6 `.%X=X*Xu.5 #X#X%X=Xr.5 =X[.$X*XN.1 (.].&X=XB., &Xx.I e ",
"r iXy.6 ).%X=X*Xu.5 #X#X%X=Xr.5 =X#X$X*X9.1 %X3X$X*Xr.> [.w.Q u ",
"t iXy.5 OX%X=XqXu.5 *X#X%X=Xr.5 oX#X;XuX9.1 `.].$X*XB.6 -XM.Q ; ",
"t iXy.5 OX%X=XqXu.5 #X%X%X=Xy.5 =X=X/.wX9.0 %X}.-XoXy., #Xw.@.g ",
"t iXy.6 OX%X=X*Xt.5 #X%X%X=Xr.5 <X=X/.*X9.< ,.1.x.r.3.6 <Xr.Q : ",
"t iXy.6 OX%X=X*Xt.5 #X%X%X=Xr.1 =X%X#XeXN.= v | n T X.> =Xm.@.; ",
"t iXy.6 `.%X=X=Xt.5 %X%X%X=Xr.1 =X%X#XOXm.8 | 1.Z.e.3.0 %X5.Q ; ",
"t iXy.6 `.%X=X*Xt.5 #X%X%X=Xr.1 OX{.<X).h.< l b.T Z X.> OXw.@.u ",
"t aXy.6 OX%X=XqXu., eX=X~.yXu., M.,.D.s.z.8 c c.S U.q.8 _.h.~ s ",
"t iXy.6 OX%X=XqXu.5 =X<X-XyXi.7 x O.l b v ' ..7.] 2.=.<  Xz.~ & ",
"r iXr.6 `.%X=X=XM., ).{.).OXw.1 x s.n.a.l.j.<.g.] %.B <  Xl.^ t ",
"r iXr.6 `.%X-X%Xw.5 -X3X`.,XV.O  .a.l _ z ` z X.[ { N 8 .X<.L s ",
"t iXy.5 ).%X=X=Xw.6 4.e.,.z.4.w Z >.o.<.k.] [ N #.W H 8 _.h.^ s ",
"t iXy.6 ).%X=X=XM.q x T | Z V V ` C.' C.%.G M { +.W K < _.C.^ # ",
"r 9Xr.6 `.{.%X%X>.6 | s.d.a.g.A.g.g.c ' B M %.{ W E P < .Xv.L e ",
"r 9Xr.6 `.{.%X%XM., _ s.b c  .z ` ` ' C } { %.G E ! #.< _.c.F y ",
"# gX8.> <X).<X=Xr.1 x l.Z z.6.[ ] ] ] ] W W W W ! ! E 9 _.m.^ # ",
"t 5XN.0 M.,.4.m.r.6 ..c.Z 5.X.A H H H H W W W W ! $.E > >Xm.~ d ",
"y 4XU.> v  ...Z ..V x c.z ` [ N H H A H P P P P K &.Q < :X7.E h ",
"p 0Xh.1 v <.b.l.5.x.c.v.)  .C ` S S C C A A S S } H m 0 '.c.P X ",
". @Xn.p.H.XXH.'.'.XX|.G.G.|._._. X X|.|..X.X|.|._.>X1XF.J.d.[ p ",
"a 8Xg.;.d.f.s.c.e.v.;.s.S.>.V.m.z.z.l.j.l.g.s.l.c.5.g.j.a.<.U - ",
"f L.-.I J J I L ( F *.I L ^ Y / ~ ^ I I I I J J I Q Q I S H j f ",
"* j o y 3 r # d s s t t # s f & s s t r t r r r e d t X 4 y $ R "
};
