/* XPM */
static char *_430299b53764cbee30ca16f4a51b95fteVK5Pn71UOFsikz[] = {
/* columns rows colors chars-per-pixel */
"32 32 7 1 ",
"  c None",
". c black",
"X c #CB7C38",
"o c #E9B26D",
"O c #E29333",
"+ c #824800",
"@ c white",
/* pixels */
"                                ",
"                                ",
"                                ",
"                                ",
"                                ",
"                                ",
"           ..      ..           ",
"           .X. .. .X.           ",
"           .oX.OO.Xo.           ",
"           .+OXooXO+.           ",
"          .+OOooooOO+.          ",
"          .XooooooooX.          ",
"         .XOooooooooOX.         ",
"          .XooooooooX.          ",
"           .+XooooX+.           ",
"          . ..XXXX.. .          ",
"           .oOO..OOo.           ",
"          .Xo.XOOX.oX.          ",
"          .o.XooooX.o.          ",
"          .@.XooooX.@.          ",
"          .@.OoXooO.@.          ",
"           .ooo+.ooo.           ",
"           .XOo.X.X.. .         ",
"          ...OOO.X....@.        ",
"          ...++..+XOXo.         ",
"           ...........          ",
"             ......             ",
"                                ",
"                                ",
"                                ",
"                                ",
"                                "
};
