/* XPM */
static char *f98d03b9f1614aa9a07c192e11133310iUACMAYXIF3bw2L5[] = {
/* columns rows colors chars-per-pixel */
"32 32 9 1 ",
"  c None",
". c black",
"X c #E29333",
"o c #F6A6E2",
"O c #824800",
"+ c #CB7C38",
"@ c #E9B26D",
"# c white",
"$ c #1AA2FB",
/* pixels */
"                                ",
"                                ",
"                                ",
"                                ",
"                                ",
"           ..      ..           ",
"           .X. .. .X.           ",
"           .oX.XX.Xo.           ",
"           .O++@@++O.           ",
"          .O@@@@@@@@O.          ",
"          .X@@@XX@@@X.          ",
"         .X+@..@@..@+X.         ",
"          .X@#.@@.#@X.          ",
"           .O#$##$#O.           ",
"          . ..#oo#.. .          ",
"           .@O....O@.           ",
"          .X@@XOOX@@X.          ",
"          .@.X@XX@X.@.          ",
"          .##.+X@+.##.          ",
"          .#.X@@@@X.#.          ",
"           .@@@++@@@.           ",
"          ...@+..+@...          ",
"         .@X.OO..OO...          ",
"        .#...........           ",
"         .   ......             ",
"                                ",
"                                ",
"                                ",
"                                ",
"                                ",
"                                ",
"                                "
};
