/* XPM */
static char *ac03f2c470f94a69a9e874d6faafbc43LSgBN0rbIMY65d0L[] = {
/* columns rows colors chars-per-pixel */
"32 32 8 1 ",
"  c None",
". c black",
"X c #824800",
"o c #F6A6E2",
"O c #E29333",
"+ c #E9B26D",
"@ c white",
"# c #1AA2FB",
/* pixels */
"                                ",
"                                ",
"                                ",
"                                ",
"                                ",
"                                ",
"                .               ",
"               .X. .            ",
"              ..oO.X.           ",
"             .+++.Oo.           ",
"            .O+++++O.           ",
"           .OOO+O++OO.          ",
"           .OO..++X+O.          ",
"          .o@O.@+++X+.          ",
"           .@@#@++X+.           ",
"            .@@OOX+O.           ",
"             .X+++O.            ",
"            .O++O++O.           ",
"            .+O.+.OO.           ",
"            .++.+.+X+.  .       ",
"            .+..@.++X. .@.      ",
"            .X.@@.+X...O.       ",
"           .....@.O..O+.        ",
"          ....+........         ",
"          .....XX++...          ",
"           ..........           ",
"             ......             ",
"                                ",
"                                ",
"                                ",
"                                ",
"                                "
};
