/* XPM */
static char *_318caf91e47474c84f0b426e8e74f25WUaaPk2XWBq74Sjz[] = {
/* columns rows colors chars-per-pixel */
"32 32 8 1 ",
"  c None",
". c black",
"X c #824800",
"o c #E29333",
"O c #F6A6E2",
"+ c #E9B26D",
"@ c white",
"# c #1AA2FB",
/* pixels */
"                                ",
"                                ",
"                                ",
"                                ",
"                                ",
"                                ",
"               .                ",
"            . .X.               ",
"           .X.oO..              ",
"           .Oo.+++.             ",
"           .o+++++o.            ",
"          .oo++o+ooo.           ",
"          .o+X++..oo.           ",
"          .+X+++@.o@O.          ",
"           .+X++@#@@.           ",
"           .o+Xoo@@.            ",
"            .o+++X.             ",
"           .o++o++o.            ",
"       .   .oo.+.o+.            ",
"      .@. .+X+.+.++.            ",
"       .o..X++.@..+.            ",
"        .+o.X+.@@....           ",
"         ......@.+....          ",
"          ...++XX.....          ",
"           ..........           ",
"             ......             ",
"                                ",
"                                ",
"                                ",
"                                ",
"                                ",
"                                "
};
