/* XPM */
static char *_55fae63372a4e9dcf2e7af222cb5eacvpMDjDP3FnxnCc35[] = {
/* columns rows colors chars-per-pixel */
"32 32 256 2 ",
"   c black",
".  c #010101",
"X  c #020202",
"o  c gray1",
"O  c #040404",
"+  c gray2",
"@  c #060606",
"#  c #070707",
"$  c gray3",
"%  c #090909",
"&  c gray4",
"*  c #0B0B0B",
"=  c #0C0C0C",
"-  c gray5",
";  c #0E0E0E",
":  c gray6",
">  c #101010",
",  c #111111",
"<  c gray7",
"1  c #131313",
"2  c gray8",
"3  c #151515",
"4  c #161616",
"5  c gray9",
"6  c #181818",
"7  c #191919",
"8  c gray10",
"9  c #1B1B1B",
"0  c gray11",
"q  c #1D1D1D",
"w  c #1E1E1E",
"e  c gray12",
"r  c #202020",
"t  c gray13",
"y  c #222222",
"u  c #232323",
"i  c gray14",
"p  c #252525",
"a  c gray15",
"s  c #272727",
"d  c #282828",
"f  c gray16",
"g  c #2A2A2A",
"h  c gray17",
"j  c #2C2C2C",
"k  c #2D2D2D",
"l  c gray18",
"z  c #2F2F2F",
"x  c gray19",
"c  c #313131",
"v  c #323232",
"b  c gray20",
"n  c #343434",
"m  c #353535",
"M  c gray21",
"N  c #373737",
"B  c gray22",
"V  c #393939",
"C  c #3A3A3A",
"Z  c gray23",
"A  c #3C3C3C",
"S  c gray24",
"D  c #3E3E3E",
"F  c #3F3F3F",
"G  c gray25",
"H  c #414141",
"J  c gray26",
"K  c #434343",
"L  c #444444",
"P  c gray27",
"I  c #464646",
"U  c gray28",
"Y  c #484848",
"T  c #494949",
"R  c gray29",
"E  c #4B4B4B",
"W  c #4C4C4C",
"Q  c gray30",
"!  c #4E4E4E",
"~  c gray31",
"^  c #505050",
"/  c #515151",
"(  c gray32",
")  c #535353",
"_  c gray33",
"`  c #555555",
"'  c #565656",
"]  c gray34",
"[  c #585858",
"{  c gray35",
"}  c #5A5A5A",
"|  c #5B5B5B",
" . c gray36",
".. c #5D5D5D",
"X. c gray37",
"o. c #5F5F5F",
"O. c #606060",
"+. c gray38",
"@. c #626262",
"#. c gray39",
"$. c #646464",
"%. c #656565",
"&. c gray40",
"*. c #676767",
"=. c #686868",
"-. c DimGray",
";. c #6A6A6A",
":. c gray42",
">. c #6C6C6C",
",. c #6D6D6D",
"<. c gray43",
"1. c #6F6F6F",
"2. c gray44",
"3. c #717171",
"4. c #727272",
"5. c gray45",
"6. c #747474",
"7. c gray46",
"8. c #767676",
"9. c #777777",
"0. c gray47",
"q. c #797979",
"w. c gray48",
"e. c #7B7B7B",
"r. c #7C7C7C",
"t. c gray49",
"y. c #7E7E7E",
"u. c gray50",
"i. c #808080",
"p. c #818181",
"a. c gray51",
"s. c #838383",
"d. c #848484",
"f. c gray52",
"g. c #868686",
"h. c gray53",
"j. c #888888",
"k. c #898989",
"l. c gray54",
"z. c #8B8B8B",
"x. c gray55",
"c. c #8D8D8D",
"v. c #8E8E8E",
"b. c gray56",
"n. c #909090",
"m. c gray57",
"M. c #929292",
"N. c #939393",
"B. c gray58",
"V. c #959595",
"C. c gray59",
"Z. c #979797",
"A. c #989898",
"S. c gray60",
"D. c #9A9A9A",
"F. c #9B9B9B",
"G. c gray61",
"H. c #9D9D9D",
"J. c gray62",
"K. c #9F9F9F",
"L. c #A0A0A0",
"P. c gray63",
"I. c #A2A2A2",
"U. c gray64",
"Y. c #A4A4A4",
"T. c #A5A5A5",
"R. c gray65",
"E. c #A7A7A7",
"W. c gray66",
"Q. c #A9A9A9",
"!. c #AAAAAA",
"~. c gray67",
"^. c #ACACAC",
"/. c gray68",
"(. c #AEAEAE",
"). c #AFAFAF",
"_. c gray69",
"`. c #B1B1B1",
"'. c #B2B2B2",
"]. c gray70",
"[. c #B4B4B4",
"{. c gray71",
"}. c #B6B6B6",
"|. c #B7B7B7",
" X c gray72",
".X c #B9B9B9",
"XX c gray73",
"oX c #BBBBBB",
"OX c #BCBCBC",
"+X c gray74",
"@X c gray",
"#X c gray75",
"$X c #C0C0C0",
"%X c #C1C1C1",
"&X c gray76",
"*X c #C3C3C3",
"=X c gray77",
"-X c #C5C5C5",
";X c #C6C6C6",
":X c gray78",
">X c #C8C8C8",
",X c gray79",
"<X c #CACACA",
"1X c #CBCBCB",
"2X c gray80",
"3X c #CDCDCD",
"4X c #CECECE",
"5X c gray81",
"6X c #D0D0D0",
"7X c gray82",
"8X c #D2D2D2",
"9X c LightGray",
"0X c gray83",
"qX c #D5D5D5",
"wX c gray84",
"eX c #D7D7D7",
"rX c #D8D8D8",
"tX c gray85",
"yX c #DADADA",
"uX c gray86",
"iX c gainsboro",
"pX c #DDDDDD",
"aX c gray87",
"sX c #DFDFDF",
"dX c gray88",
"fX c #E1E1E1",
"gX c #E2E2E2",
"hX c gray89",
"jX c #E4E4E4",
"kX c gray90",
"lX c #E6E6E6",
"zX c #E7E7E7",
"xX c gray91",
"cX c #E9E9E9",
"vX c #EAEAEA",
"bX c gray92",
"nX c #ECECEC",
"mX c gray93",
"MX c #EEEEEE",
"NX c #EFEFEF",
"BX c gray94",
"VX c #F1F1F1",
"CX c gray95",
"ZX c #F3F3F3",
"AX c #F4F4F4",
"SX c gray96",
"DX c #F6F6F6",
"FX c gray97",
"GX c #F8F8F8",
"HX c #F9F9F9",
"JX c gray98",
"KX c #FBFBFB",
"LX c gray99",
"PX c #FDFDFD",
"IX c #FEFEFE",
"UX c white",
/* pixels */
"A y q p u f n b x z l l l k l x h 5 a u 8 i e w a r q r t e e t ",
"F i 9 t u g v z c x c c x x x c m q i r 8 i e w i r w t u t t u ",
"D s 0 e i h c k k z x x z z x x c 0 0 9 9 i y y w q w r t e w r ",
"m f y u d k x l k v m n b b n b c p i a p u t u q r u i u e w w ",
"d j j h k z x v b Z F D A S D A D D Z S m u q e u f z l g p y t ",
"e z v z c c x n b D L H F J J F D U K U D y 0 t y j n v h p y e ",
"w v b k v b l c x A L H D H J D C I Z K G y e p 0 f b c f u e 0 ",
"r n c f v n j l x D I K G K L G L W V F F y e p 8 f m b h p t w ",
"y k v l b D K F G G G G G G G G J T N J J y w a q k c k c v x c ",
"y k v l b D K F G G G G G G G G C K V L J u w a w k c k c v z x ",
"y k v l b D K F G G G G G G G G G I H T H u 9 t w l c k x v z x ",
"y k v l b D K F G G G G G G G G L F C D N u 0 r w l v k x v z x ",
"y k v l b D K F G G G G G G G G Z f u a s i t u e l v l x c l z ",
"y k v l b D K F G G G G G G G G F t 0 9 q i t y e z v l x c l z ",
"y k v l b D K F G G G G G G G G P i i r 0 p w q r z v l x c l l ",
"y k v l b D K F G G G G G G G G S e a y 0 p w q r z b l x c k l ",
"u z c l c x l v f y q e y r e e w 4 s w e G K Z K S D J D b k x ",
"r k x l c x j z j i e e t r r t a 0 a 9 e F K C P G F K F n l x ",
"t l c x n b x v h u q q w q q e r 7 w 5 r F I F J S S F Z c j l ",
"t j k h c v x b h p t y t w 0 q w y a y g F P G G S A D A m c c ",
"q p y e a h j c z j j l j p t r s B S Z Z D H S J H H K J D A A ",
"q u w 9 u f j v z l x b z s r e i H P I P D G D G G H J J H G G ",
"w i e q a k z n l k z x j u q 0 e D D J I D K K S D D F F F D D ",
"9 t w q s k l v c x x x h u e e s L A F I S K K D G G F F G F D ",
"q k c k c v x c v x x b b x z v v U B S U D L P F H H H J K H S ",
"w k c k c v z x z k l c c l l x h J A G I S J K H H G D D F D A ",
"w l c k x v z x x z x b b x z c x P L P P A D S F D D G H H K P ",
"w l v k x v z x v x c b v l h k x Z S Z Z S F A G D D J G Z Z D ",
"e l v l x c l z x l l z j a y y y y p u h D L H I H G J V f y i ",
"e z v l x c l z c z l z h u w q t 6 q 7 y D P G U G H L V u 8 w ",
"r z v l x c l l b c x c k p e w s 9 a w t S H C P S F P Z a e s ",
"r z b l x c k l x l l z h u w q e 4 f t r S F V U D D K B y 0 a "
};
