/* XPM */
static char *result[] = {
/* columns rows colors chars-per-pixel */
"32 32 15 1 ",
"  c #001066",
". c #A50000",
"X c #993200",
"o c red",
"O c #E55F00",
"+ c #FF9400",
"@ c #FFD800",
"# c #FFB27F",
"$ c #003399",
"% c #0072E5",
"& c #00A9FF",
"* c #4CB4FF",
"= c #7FC9FF",
"- c #F2F9FF",
"; c None",
/* pixels */
";;;;;;;;;;;;;;;;;;;;;;;;;;;;;;;;",
";;;;;;;;;;;;;;;;;;;;;;;;;;;;;;;;",
";;;;;;;;;;;;;;;;;;;;;;;;;;;;;;;;",
";;;;;;;;;;;;;%%%%%%;;;;;;;;;;;;;",
";;;;;;;;;;;;%&&&&&&%;;;;;;;;;;;;",
";;;;;;;;;;;;%&&&&&&%;;;;;;;;;;;;",
";;;;;;;;;;;%&&&&&&&&%;;;;;;;;;;;",
";;;;;;;;;;$%&&&&&&&&%$;;;;;;;;;;",
";;;;;;;;;;$%&&&&&&%%%$;;;;;;;;;;",
";;;;;;;;;$%%%%%%%%%%%%$=;;;;;;;;",
";;;;;;;;;$%%%%%%%%%%%%$-=;;;;;;;",
";;;;;;;;$%%%%%%%%%%%%%%$=;;;;;;;",
";;;;;;;;$%%%%%%%%%%%%%%$*;;;;;;;",
";;;;;;;;$%%$$$$$$$$%%%%$*;;;;;;;",
";;;;;;;;$%$@@+@@+@@$%%%$*;;;;;;;",
";;;;;;;;;$+@@+@@+@@+$$$-*;;;;;;;",
";;;;;;;;;+@+++@@+++@+$ -*;O;;;;;",
";;;;;;;; ++$$$++$$$++$$ OOX;;;;;",
";;;;;;;;$%% $$$$$$$$ %%$XX;;;;;;",
";;;;;;;;;%#          ###;;;;;;;;",
";;;;;;;;;;# oooooooo.##X;;;;;;;;",
";;;;;;;;;;; oooooooo.;;;;;;;;;;;",
";;;;;;;;;;;.oooo.....;;;;;;;;;;;",
";;;;;;;;;;;.oo..; $$ ;;;;;;;;;;;",
";;;;;;;;;;;... ;;   ;;;;;;;;;;;;",
";;;;;;;;;;;;   ;;;;;;;;;;;;;;;;;",
";;;;;;;;;;;;;;;;;;;;;;;;;;;;;;;;",
";;;;;;;;;;;;;;;;;;;;;;;;;;;;;;;;",
";;;;;;;;;;;;;;;;;;;;;;;;;;;;;;;;",
";;;;;;;;;;;;;;;;;;;;;;;;;;;;;;;;",
";;;;;;;;;;;;;;;;;;;;;;;;;;;;;;;;",
";;;;;;;;;;;;;;;;;;;;;;;;;;;;;;;;"
};
