/* XPM */
static char *e80f9610f7504fd3e48696d1a83b525ayg3iKDeFXZMDWD6y[] = {
/* columns rows colors chars-per-pixel */
"32 32 18 1 ",
"  c None",
". c #3F4B1F",
"X c #231C19",
"o c #495A22",
"O c #3A231F",
"+ c #33211D",
"@ c #503C28",
"# c #5F472D",
"$ c #1E243C",
"% c #0E2244",
"& c #242B33",
"* c #A0FCD8",
"= c #10D3C3",
"- c white",
"; c #1498DC",
": c #636B85",
"> c #3D4857",
", c #AEB4CE",
/* pixels */
"  &&&&&&&&&&&&.X  &&&&&&&&&&&&  ",
" &************&o &=**********=& ",
"&*****====*=***&&=------------=&",
"&*=***=*=====**&&--------------&",
"&*=***===;;===*&&-----*==*-----&",
"&;=======;;===;&&;---*====*---=&",
"&;;===;======;;&&;====&&&&====;&",
"&&;;;;;;;;;;;;&&&&;;;&====&;;;&&",
"&&&&&&&&&&&&&&&&&;&&&;=**==&&&;&",
"&:>>>>>>>>>>>>:&&;=====**=====;&",
"&,:,:::::::::,,&&;=;=========;;&",
"&,:::::::>>:::,&&;=======;;===;&",
"&,::>>:::>>:>:,&&;==;;===;;=;=;&",
"&>::>>::::::::>&&;==;;========;&",
" &>>>>>>>>>>>>&O &;;;;;;;;;;;;& ",
"  &&&&&&&&&&&&+X  &&&&&&&&&&&&  ",
"  &&&&&&&&&&&&@X  &&&&&&&&&&&&  ",
" &,,,,,,,,,,,,&# &=**********=& ",
"&,,,:,,,::::,,,&&=------------=&",
"&,,::,,,:::::,,&&--------------&",
"&,:::,,,:,,:::,&&-----*==*-----&",
"&,:,:::::,,:::,&&=---*=;;=*---=&",
"&,::::::::::::,&&;====&&&&====;&",
"&,::>>::::::,:,&&&;;;&::::&;;;&&",
"&>::>>:,,:::::>&&>&&&::>:::&&&>&",
"&>:::::,,:::::>&&>::::::::>>::>&",
"&>:>:::::::::>>&&>:>>>::::>>::>&",
"&>:::::::>>:::>&&>:>>>::::::::>&",
"&>::>>:::>>:>:>&&>:>>>:>>::>::>&",
"&>::>>::::::::>&&>:::::>>::::>>&",
" &>>>>>>>>>>>>&O &>>>>>>>>>>>>& ",
"  &&&&&&&&&&&&$%  &&&&&&&&&&&&  "
};
